<svg xmlns="http://www.w3.org/2000/svg" width="375" viewBox="0 0 375 375" height="375" version="1.0"><defs><clipPath id="a"><path d="M 8 25 L 367 25 L 367 337.160156 L 8 337.160156 Z M 8 25"/></clipPath></defs><g clip-path="url(#a)"><path fill="#FFF" d="M 187.363281 337.085938 C 184.960938 337.070312 183.402344 335.71875 183.046875 335.390625 L 44.339844 196.835938 C 11.328125 166.992188 -0.0234375 121.507812 15.359375 83.742188 C 33.292969 39.734375 78.558594 28.25 81.605469 27.539062 C 120.5 18.46875 162.070312 35.363281 187.40625 69.824219 C 212.742188 35.363281 254.320312 18.472656 293.203125 27.539062 C 295.160156 27.992188 341.3125 39.210938 359.449219 83.742188 C 374.953125 121.804688 363.304688 167.234375 330.46875 196.835938 L 191.765625 335.390625 C 191.417969 335.710938 189.820312 337.101562 187.363281 337.085938 Z M 187.363281 337.085938"/></g></svg>